<?xml version="1.0" encoding="utf-8"?>
<!-- Generator: Adobe Illustrator 15.1.0, SVG Export Plug-In . SVG Version: 6.00 Build 0)  -->
<!DOCTYPE svg PUBLIC "-//W3C//DTD SVG 1.1//EN" "http://www.w3.org/Graphics/SVG/1.1/DTD/svg11.dtd">
<svg version="1.1" id="Layer_1" xmlns="http://www.w3.org/2000/svg" xmlns:xlink="http://www.w3.org/1999/xlink" x="0px" y="0px"
	 width="100px" height="85.53px" viewBox="0 0 100 85.53" enable-background="new 0 0 100 85.53" xml:space="preserve">
<g>
	<rect fill="rgba(0, 0, 0, 0)" width="100" height="85.531"/>
	<g>
		<g>
			<g>
				<path fill="#FFFFFF" d="M36.337,24.792c-3.444,3.014-7.55,8.579-7.55,17.975c0,9.395,4.106,14.96,7.55,17.974
					c4.256,3.724,10.009,5.774,16.199,5.774v-8.855c-4.044,0-7.726-1.272-10.367-3.584c-3.003-2.627-4.526-6.433-4.526-11.309
					s1.523-8.683,4.526-11.311c2.641-2.311,6.323-3.583,10.367-3.583v-8.855C46.346,19.017,40.593,21.067,36.337,24.792z"/>
			</g>
			<g>
				<path fill="#FFFFFF" d="M19.554,20.644c-2.454,1.098-4.367,2.736-5.685,4.868c-4.686,7.583,0.31,18.064,0.895,19.233
					c1.134,2.303,2.946,7.945,1.278,10.628c-1.176,1.891-4.444,2.286-6.979,2.286v8.855c3.446,0,6.416-0.547,8.831-1.626
					c2.455-1.099,4.368-2.736,5.685-4.869c4.687-7.581-0.31-18.063-0.894-19.234c-1.134-2.301-2.946-7.944-1.278-10.626
					c1.176-1.89,4.443-2.287,6.978-2.287v-8.855C24.94,19.017,21.968,19.565,19.554,20.644z"/>
			</g>
		</g>
		<path fill="#FFFFFF" d="M90.937,76.525H59.027V9.005h31.909V76.525L90.937,76.525z M65.532,19.008v28.145
			c0,0,4.289,0.031,4.381,0.032c0.017,0,1.632,0.046,3.073,0.83c1.028,0.562,2.207,1.568,2.207,4.402s-1.179,3.841-2.207,4.401
			c-1.441,0.786-3.057,0.832-3.073,0.832h0.047v8.855c0.355,0,3.555-0.048,6.812-1.676c4.693-2.347,7.277-6.754,7.277-12.413
			c0-5.658-2.584-10.067-7.277-12.413c-0.813-0.407-1.621-0.714-2.383-0.947c0-3.466,0-7.239,0-11.194c4.27,0,10.062,0,10.062,0
			v-8.855H65.532z"/>
	</g>
</g>
</svg>
