<svg version="1.1" id="Layer_1" xmlns="http://www.w3.org/2000/svg" xmlns:xlink="http://www.w3.org/1999/xlink" x="0px" y="0px"
	 viewBox="0 0 3814.9 1593.3" enable-background="new 0 0 3814.9 1593.3" xml:space="preserve">
<g>
	<path fill="#ff2837" d="M1090.4,133c37.8,22.3,75.7,69,75.7,135.7c0,89-71.2,158-160.2,158c-33.4,0-60.1-8.9-86.8-24.5
		c-113.5-66.8-220.6-104.6-327.4-104.6c-131.3,0-200.6,60.1-200.6,135.7v4.4c0,2.7,0.4,5.4,0.5,8.1
		c-88.8-54.7-134.6-109.5-157.9-147.1c-27.7-44.7-37.1-86.7-28-124.7c13-54.7,61.4-91.2,89.1-108.2c11.8-7.2,20.3-12.1,26.3-15.5
		c79.2-36,172.5-55.5,275.4-55.5C785.6-4.9,950.2,44,1090.4,133z"/>
	<path fill="#ff2837" d="M1222,1114.3c0,309.3-236,482.8-572,482.8c-204.7,0-411.7-62.3-585.3-186.9c-37.8-26.7-64.6-75.7-64.6-129.1
		c0-89,71.2-158,160.2-158c44.5,0,75.6,15.6,97.9,31.2c117.9,86.8,247.4,140.2,398.7,140.2c140.2,0,225.1-55.6,225.1-146.9v-4.5
		c0-86.8-53.4-131.3-313.8-198C254.5,865.1,52,778.3,52,469v-4.4c0-103.4,30-193.9,84.1-267.2c-1.3,44.2,12.3,90,41.2,136.6
		c23.7,38.3,56.1,74.9,96.4,108.9c31.7,26.7,68.3,51.9,108.9,74.9c54.9,31.1,101.8,49.7,119.8,56.3c51.2,21.5,124.1,42.4,225.6,68.4
		c316,82.3,494.1,195.8,494.1,467.3V1114.3z"/>
	<path fill="#ff2837" d="M3790,1063.1c0,329.3-238.5,538.5-581.1,538.5c-215.8,0-365.1-57.9-489.7-146.9c-40.1-28.9-69.1-73.4-69.1-131.3
		c0-89,73.4-164.7,162.4-164.7c40.1,0,66.7,11.1,93.4,31.2c95.7,69,186.8,100.1,295.8,100.1c144.6,0,251.3-77.9,251.3-215.8v-4.4
		c0-133.5-113.4-211.4-275.8-211.4c-131.3,0-189.1,40.1-235.8,40.1c-49,0-86.7-20-155.7-69c-46.7-33.4-66.7-80.1-62.3-138
		l31.2-527.5c4.5-82.3,69-147,151.3-147h676.4c82.3,0,151.3,69.3,151.3,151.6c0,82.3-69,149.4-151.3,149.4h-525.1l-17.8,269.1
		c62.3-15.6,118.3-26.8,205.1-26.8c307.1,0,545.5,146.8,545.5,498.3V1063.1z"/>
	<path fill="#ff2837" d="M1670,985.4c21.6,57.8,52.8,109.4,92.9,153.5c82.5,90.6,195.6,141.2,318.7,142.5l2.5,0l2.5-0.2
		c83.6-5.4,157-27.9,224.7-68.9l1.4-0.9l1.4-1c26.3-17.8,58.1-27.7,89.5-27.7c4.7,0,9.3,0.2,14.1,0.7c41.8,4,79.6,23.9,106.3,56.1
		c26.6,32,39.1,72.4,35.2,113.6c-2.2,23.3-9,45.1-20.1,64.9c-11.1,19.7-25.9,36.3-44.1,49.3c-60.5,40.3-123.6,69.9-193.1,90.5
		c-70,20.8-145.5,32.2-230.7,34.9l-11.8,0.4c-7.8,0.2-15.1,0.2-22.8,0.2c-48.5,0-97.5-5.4-145.8-16.1c-47-10.4-93.8-25.9-138.9-46.1
		c-44.3-19.8-87.4-44.2-128-72.6c-40.2-28.1-78.2-60.2-112.8-95.3c-146.4-148.4-226.9-347.9-226.9-561.7v-4.4
		c0-213.9,80.2-413.6,226.1-562.3c34.8-35.5,72.6-67.8,112.5-96.2c40.7-29,83.7-54,127.8-74.3c93.1-42.8,189.7-64.5,287-64.5
		c94.1,0,176.6,10.1,252.1,31c74.6,20.6,142.5,51.7,207.6,95c17.9,12.8,32.4,29.2,43.2,48.8c10.9,19.7,17.5,41.7,19.8,65.4
		c8.1,85.3-55.7,161.4-142.3,169.7c-4.6,0.4-9.7,0.7-14.5,0.7c-31.9,0-63.9-9.8-90.2-27.7l-1.4-1l-1.5-0.9
		c-33.1-20-66.3-35.3-101.6-46.5c-38.3-12.2-78.1-19.5-121.8-22.3l-2.5-0.2l-2.5,0c-122.9,1.3-235.9,51.6-318.5,141.6
		c-81.5,88.8-126.2,209.3-126.2,339.4v4.4C1637,863.1,1648,926.5,1670,985.4z"/>
</g>
</svg>
