<?xml version="1.0" encoding="utf-8"?>
<!-- Generator: Adobe Illustrator 18.1.1, SVG Export Plug-In . SVG Version: 6.00 Build 0)  -->
<!DOCTYPE svg PUBLIC "-//W3C//DTD SVG 1.1//EN" "http://www.w3.org/Graphics/SVG/1.1/DTD/svg11.dtd">
<svg version="1.1" id="Layer_1" xmlns="http://www.w3.org/2000/svg" xmlns:xlink="http://www.w3.org/1999/xlink" x="0px" y="0px"
	 viewBox="0 0 4029.2 4029.2" enable-background="new 0 0 4029.2 4029.2" xml:space="preserve">
<rect x="57.6" y="57.1" display="none" fill="#FF0000" width="3913.9" height="3914.9"/>
<g display="none">
	
		<rect x="-1121.1" y="-3" display="inline" fill="#FFFFFF" stroke="#000000" stroke-width="3.4621" stroke-miterlimit="10" width="6312.1" height="4118.2"/>
</g>
<g>
	<path d="M1282.8,2149.6c-12.3-28.5-27.9-55.5-46.5-80.2c-17.9-23.9-39.1-46.5-62.9-67.1c-43.8-37.8-97.4-70.2-163.9-99
		c-57.1-24.7-124.8-47.2-206.9-68.5l-0.3-0.1c-66.3-17-140.6-36.9-189.9-56.4c-2.2-1.2-4.6-2.2-6.9-3c-0.2-0.1-1.4-0.5-3.6-1.3
		c-11.7-5-21.6-9.8-29.6-14.5c-13.7-8.1-18.7-13.9-20.6-17.4c-2.5-4.5-3.6-12.3-3.6-23.1v-4.1c0-10.9,4.6-19.3,15.5-27.2
		c19.2-14,53.2-22,93.5-22c40.5,0,81.6,7,125.7,21.5c43.7,14.3,89.3,35.6,139.4,65.1l0.3,0.2c38.9,22.6,76.8,33.2,119.4,33.2
		c30.3,0,59.7-5.7,87.4-17.1c27.1-11.1,51.3-27,72.1-47.4c20.9-20.5,37.3-44.6,48.8-71.5c11.8-27.8,17.8-57.4,17.8-88
		c0-42.7-11.6-83.9-33.6-119.3c-18.6-29.8-44-54.9-73.5-72.6c-146.4-92.7-314.5-139.6-499.6-139.6c-81.2,0-158,11.8-228.3,35.2
		c-11.6,3.8-23.1,8.1-34.4,12.6c-6.2,1.4-11.7,3.8-16.8,6.2c-3.1,1.5-6.9,3.4-11,5.7c-45.6,21-87.3,47.4-123.8,78.4
		c-53.8,45.7-95.6,101-124.6,164.3c-29.5,64.3-44.2,135.3-44.2,211.2v4.1c0,40.9,3.1,78.9,9.6,113c6.8,35.5,17,68.7,30.6,98.7
		c13.6,30,30.7,58.1,51.1,83.4c19.4,24.1,42.3,46.6,68.1,66.8c92.7,72.6,218.1,114.7,377.8,155.5c111.7,28.6,179.4,52.4,213.3,74.7
		c12,7.9,16.7,13.2,18.2,16.3c0.9,1.7,3.4,6,3.4,18.5v4.1c0,15.5-6.3,25.9-21.3,35.7c-23.2,15.2-63.9,23.9-111.5,23.9
		c-59.3,0-115.1-9.9-170.4-30.2c-52-19.1-102.6-47-154.5-85.2l-1.6-1.1c-18-12.6-36.3-22.2-55.7-29.2c-25-9.1-51.8-13.7-79.5-13.7
		c-30.3,0-59.7,5.7-87.4,17.1c-27.1,11.1-51.3,27-72.1,47.4c-20.9,20.5-37.3,44.6-48.8,71.5c-11.8,27.8-17.8,57.4-17.8,88
		c0,72.4,35.4,142.4,92.3,182.7c85.8,61.6,181,109.1,282.8,141.1c99.1,31.2,202.1,47,306.1,47c174.6,0,323.8-46.3,431.6-133.9
		c56.9-46.3,101.3-103,131.3-168.6c30.6-66.9,46.4-142.1,46.4-223.5v-4.1c0-35.8-3.3-70.2-9.3-102.2
		C1304.8,2209.2,1295.2,2178.3,1282.8,2149.6z M942.1,2378.9v-4.1c0-49.6-18.7-82.9-62.1-111.6c-43.8-28.9-116.1-55-241.4-87.1
		c-148.5-37.9-263.7-76-343.8-138.7c-85.2-66.7-124.7-158.7-124.7-289.5v-4.1c0-45.7,6.4-89.5,19.4-130.1
		c8.3-25.8,19-50.5,32.4-73.7c5.8,29.8,18.1,60,36.8,90.3c22.9,37,54.1,72.3,92.7,104.9c30.2,25.5,65,49.4,103.5,71.3
		c51.8,29.4,96.2,46.9,113.3,53.2c43.8,18.4,105.2,37,211.4,64.2c77.5,20.2,140.8,41.1,193.5,63.9c57.8,25,103.7,52.6,140.3,84.2
		c38.4,33.2,66.5,70.5,85.3,114.2c19.7,45.6,29.5,97.1,29.5,157.7v4.1c0,68.1-12.9,130.5-38,185.2c-24.1,52.6-59.7,98.2-105.5,135.5
		c-91.2,74.1-220.4,113.3-373.7,113.3c-94.6,0-188.3-14.4-278.5-42.8c-92.6-29.1-179-72.3-257-128.2l-0.1-0.1
		c-32.6-23-53.7-65.3-53.7-107.8c0-74,58.8-131.9,134-131.9c30.6,0,56.7,8.3,82.3,26.2c121.8,89.6,245.9,133.2,379.4,133.2
		c66.8,0,123-13.5,162-38.9C920.2,2464.8,942.1,2425.9,942.1,2378.9z M456.6,1699.3c-66.3-44.8-101.6-88-119.9-117.6
		c-23.6-38.1-31.7-73.2-24.3-104.6c10.8-45.5,52.3-76.7,76.1-91.3c9.1-5.5,16.9-10.2,23.4-13.8c73.3-33.2,157.2-50,249.3-50
		c167.8,0,319.7,42.4,451.3,125.9l0.4,0.3c17,10,32.4,25.1,43.2,42.6c13.1,21,19.7,44.8,19.7,70.7c0,74-58.8,131.9-134,131.9
		c-26,0-48.6-6.4-73.1-20.7c-55.9-32.9-107.3-56.8-157.4-73.2c-53.5-17.6-104-26.1-154.5-26.1c-61,0-112.1,13.7-147.7,39.6
		C479.1,1635,460.8,1665.2,456.6,1699.3z"/>
	<path d="M3953.8,2055.4c-29.3-68.3-72.7-126.5-129.2-173.1c-52.4-43.1-115.6-75.8-188.1-97.1c-66.7-19.6-141.2-29.6-221.4-29.6
		c-37.9,0-73,2.2-106.9,6.7l5.2-78.2h416.2c28.9,0,57.2-5.7,84-16.9c25.8-10.8,49-26.2,69-45.8c20.1-19.7,36-42.7,47.2-68.4
		c11.7-26.9,17.6-55.4,17.6-84.7c0-29.2-5.9-57.7-17.5-84.7c-11.1-25.7-26.8-48.9-46.7-68.8c-20.3-20.3-43.5-36.1-68.8-47
		c-27.5-11.8-56-17.8-84.7-17.8h-629c-56.9,0-110.6,22-151.4,61.9c-39.6,38.8-63.1,91.3-66.2,147.8l-28.9,489.6
		c-2.9,39.7,3,76.4,17.6,109.2c15.2,34.2,39.5,63.4,72.1,86.7l0.5,0.4c40.1,28.4,66.7,44.8,91.8,56.3c32.7,15,63.7,22,97.6,22
		c27.3,0,51.8-7.2,77.8-14.8c33.9-10,76.2-22.4,141.5-22.4c30.5,0,58.4,3.5,83,10.4c22.2,6.2,41,15,56,26.1
		c13.2,9.8,23.1,21.5,29.7,34.7c7,13.9,10.3,30.1,10.3,48.4v4.1c0,38.2-12.6,68.1-38,88.9c-13,10.7-29.1,19.1-48,25
		c-20.9,6.5-44.6,9.8-70.3,9.8c-42.5,0-80.9-6-117.5-18.4c-36.9-12.5-73.6-32.1-112.1-59.8c-40.7-30.4-81.6-43.9-132.5-43.9
		c-30.9,0-60.9,6.3-89.4,18.7c-27,11.8-51.3,28.6-72.1,49.8c-20.7,21.1-37.1,45.6-48.5,72.8c-12,28.3-18,58.2-18,88.8
		c0,38.9,9.4,75.4,27.8,108.6c16.5,29.6,39.4,55.1,68.2,75.9l0.4,0.3c69.1,49.3,140.1,85.3,217,110c85.9,27.5,178.4,40.9,282.9,40.9
		c87.4,0,169.6-13.3,244.3-39.5c75.4-26.5,141.7-65.5,197.1-116.1c56.7-51.8,100.3-114,130.1-184.8c30.4-72.5,45.6-152.3,45.6-237.2
		v-4.1C3999.1,2206.9,3984,2125.9,3953.8,2055.4z M3624.1,2310.6v-4.1c0-128.5-106.4-211.6-271.3-211.6
		c-78.6,0-129.9,15.1-167.4,26.1c-21.1,6.2-37.7,11.1-51.8,11.1c-38.5,0-69-13.8-136.1-61.3c-38.6-27.6-55.5-65.2-51.7-114.9l29-491
		c1.8-33.5,15.6-64.5,38.7-87.3c23.3-22.8,54.2-35.4,87-35.4h629c68.1,0,125.7,57.7,125.7,126c0,32.9-13.2,63.9-37.2,87.5
		c-23.9,23.5-55.4,36.5-88.5,36.5h-502.3l-18.8,284.9l20-5c51.4-12.9,104.4-24.4,187-24.4c71.4,0,137.2,8.7,195.5,25.8
		c60.5,17.8,112.9,44.7,155.7,79.9c44.9,37,79.4,83.5,102.9,138.3c25.1,58.5,37.7,127.3,37.7,204.4v4.1
		c0,144.7-50.2,267.1-145.5,354.1c-46.3,42.2-101.9,74.9-165.5,97.3c-64.9,22.8-136.8,34.3-213.8,34.3
		c-94.8,0-178.2-11.9-254.9-36.5c-67.8-21.7-130.5-53.5-191.6-97.2c-37.4-27-58-66-58-109.9c0-74.9,62.3-138.1,136-138.1
		c31.1,0,53,7.3,77.9,26l0.2,0.2c92,66.4,179.6,95.9,283.9,95.9c71.3,0,132.2-19.2,176.6-55.6
		C3599.4,2432.1,3624.1,2376.7,3624.1,2310.6z"/>
	<path d="M2188.2,1678.6c64.7,4.2,119.3,21,171.8,52.8c37,25,82,38.8,126.8,38.8c7,0,14-0.3,20.8-1
		c122.8-11.7,213.3-120.1,201.7-241.7c-3.1-32.6-12.4-63.1-27.6-90.7c-15.8-28.7-37.3-52.8-63.8-71.5l-0.3-0.2
		c-133.4-89.1-283.1-130.6-470.9-130.6c-101.7,0-202.4,22.6-299,67.1c-90.6,41.7-173.4,100.4-246.2,174.6
		c-149.7,152.6-232.2,357.5-232.2,576.8v4.1c0,219.3,82.8,424,233.1,576.4c71.3,72.3,156.9,131.9,247.4,172.4
		c95.8,42.8,195.5,64.5,296.1,64.5c11.5,0,21.8-0.2,34.5-0.5l-0.2-7.9l0-7.1l0.5,14.9c85.9-2.7,162.4-14.3,234-35.6
		c72.3-21.5,138-52.4,201-94.4l0.3-0.2c52.5-37.1,86.2-96.2,92.5-162.2c5.6-58.9-12.2-116.4-50.1-162.1c-38-45.7-91.5-74-150.8-79.6
		c-6.9-0.7-13.6-1-20.5-1c-44.3,0-89.1,13.8-126.1,38.8c-52.5,31.8-107.4,48.6-172.9,52.8c-92.6-1.2-177.7-39.3-239.7-107.4
		c-62.7-68.8-97.2-163.3-97.2-265.9v-4.1C1851.1,1840,1996,1680.9,2188.2,1678.6z M2408.9,2451.9l1.3-0.8l1.9-1.3
		c22-14.9,48.5-23.1,74.8-23.1c3.9,0,7.7,0.2,11.7,0.6c34.9,3.3,66.4,19.9,88.7,46.8c22.2,26.7,32.6,60.3,29.3,94.6
		c-1.9,19.6-7.5,37.9-16.8,54.4c-9.2,16.3-21.4,30.1-36.4,40.8c-54.9,36.5-112.3,63.4-175.3,82.1c-63.9,19-132.8,29.4-210.7,31.8
		l-10.9,0.3c-7.1,0.1-13.7,0.2-20.8,0.2c-44,0-88.5-4.9-132.4-14.6c-42.7-9.5-85.2-23.6-126.3-41.9c-40.4-18-79.6-40.3-116.6-66.1
		c-36.4-25.4-71-54.6-102.8-86.9c-133.2-135.1-206.6-316.8-206.6-511.8v-4.1c0-195.1,73.1-377,205.9-512.3
		c31.8-32.4,66.3-62,102.5-87.8c37.1-26.5,76.3-49.2,116.4-67.7c84.6-38.9,172.3-58.6,260.6-58.6c86.1,0,161.5,9.2,230.4,28.3
		c67.7,18.7,129.4,46.9,188.5,86.2c14.7,10.5,26.7,24.1,35.6,40.3c9.1,16.5,14.7,35,16.6,55c6.8,71.1-46.5,134.5-118.8,141.4
		c-3.9,0.4-8,0.6-12.1,0.6c-26.7,0-53.5-8.2-75.5-23.2l-1.3-0.9l-2-1.2c-31.8-19.3-63.7-33.9-97.7-44.7
		c-36.8-11.7-75-18.8-116.8-21.5l-2.9-0.2l-2.9,0c-118.4,1.2-227.5,49.7-307.2,136.5c-78.3,85.3-121.4,200.9-121.4,325.7v4.1
		c0,63.4,10.6,124.1,31.7,180.3c20.8,55.6,50.8,105.3,89.4,147.5c79.6,87.3,188.7,136.2,307.3,137.4l2.9,0l2.9-0.2
		C2273.3,2512.9,2343.9,2491.3,2408.9,2451.9z"/>
</g>
<path display="none" opacity="0.2" fill="#FF0000" d="M62.9,2155.5c-11.8-27.4-26.9-53.4-44.7-77.2c-17.3-23-37.7-44.8-60.7-64.7
	c-42.6-36.8-95-68.4-160-96.6c-56.4-24.4-123.4-46.6-204.7-67.8l-0.1,0l-0.1,0c-81-20.8-146.8-39.2-192.6-57.3
	c-1.7-1-3.5-1.8-5.4-2.4c-0.1,0-1.6-0.5-4.3-1.5c-12.3-5.2-22.9-10.4-31.7-15.6c-13.4-7.9-22.3-15.4-26.5-23
	c-2.4-4.3-5.9-12.2-5.9-30.5v-4.1c0-15.8,7.4-28.7,22.1-39.3c22.1-16,58.6-24.9,102.6-24.9c42.1,0,84.9,7.3,130.5,22.3
	c44.7,14.7,91.3,36.4,142.3,66.4l0.1,0.1l0.1,0.1c36.5,21.3,72.1,31.2,111.9,31.2c28.4,0,55.9-5.4,81.7-15.9
	c25.3-10.3,47.9-25.2,67.3-44.2c19.5-19.1,34.8-41.6,45.5-66.6c11-25.9,16.6-53.5,16.6-82.1c0-39.9-10.8-78.4-31.3-111.4
	c-17.3-27.9-41-51.3-68.6-67.7c-144-91.2-309.4-137.4-491.8-137.4c-79.6,0-154.8,11.6-223.6,34.4c-11.9,3.9-23.5,8.2-34.8,12.8
	c-5.2,1-10,3.1-14.6,5.3c-3.1,1.5-6.7,3.4-10.8,5.6c-44.6,20.5-85.1,46-120.8,76.4c-52.4,44.5-93.1,98.1-121.1,159.2
	c-28.7,62.6-43.2,131.5-43.2,204.9v4.1c0,39.3,3.3,76.3,9.8,110.2c6.5,34.1,16.5,66.2,29.7,95.4c13,28.8,29.6,55.8,49.2,80.2
	c18.7,23.2,40.8,44.9,65.7,64.4c90.7,71,214.4,112.4,372.3,152.7c113.3,29.1,182.5,53.4,217.8,76.7c11.6,7.7,19.2,14.8,22.9,21.9
	c1.9,3.7,4.6,10.4,4.6,25.4v4.1c0,20.9-8.6,35.7-27.7,48.2c-25.9,17-68.4,26.3-119.5,26.3c-61,0-118.4-10.2-175.5-31.1
	c-53.3-19.6-105.1-48.1-158.2-87.2l-0.6-0.4l-0.6-0.4c-17-11.9-34-20.8-52.2-27.4c-23.4-8.5-48.4-12.8-74.4-12.8
	c-28.4,0-55.9,5.4-81.7,15.9c-25.3,10.3-47.9,25.2-67.3,44.2c-19.5,19.1-34.8,41.6-45.5,66.6c-11,25.9-16.6,53.5-16.6,82.1
	c0,67.6,33,132.9,86,170.5c84.6,60.7,178.3,107.4,278.6,139c97.7,30.7,199.1,46.3,301.6,46.3c171.1,0,317.1-45.1,422.1-130.5
	c55.1-44.8,97.6-99.7,126.7-163.2c29.7-64.9,44.6-138,44.6-217.3v-4.1c0-35-2.8-68.5-8.6-99.4C83.6,2213,74.8,2183.1,62.9,2155.5z
	 M-85.7,1435.4c35.2,20.7,70.3,64.1,70.3,126.2c0,82.8-66.2,146.9-149,146.9c-31,0-55.9-8.3-80.7-22.8
	c-105.5-62.1-205.1-97.2-304.4-97.2c-122.1,0-186.5,55.9-186.5,126.2v4.1c0,2.6,0.3,5.1,0.4,7.5c-82.6-50.9-125.2-101.8-146.8-136.8
	c-25.8-41.6-34.5-80.6-26.1-115.9c12.1-50.8,57.1-84.8,82.9-100.6c10.9-6.7,18.8-11.3,24.5-14.4c73.6-33.5,160.4-51.6,256.1-51.6
	C-369.1,1307.1-216,1352.6-85.7,1435.4z M36.1,2347.9c0,287.6-219.2,449-531.6,449c-190.4,0-382.7-57.9-544.1-173.8
	c-35.2-24.8-60-70.3-60-120c0-82.8,66.2-146.9,149-146.9c41.4,0,70.4,14.5,91,29c109.7,80.7,229.8,130.4,370.5,130.4
	c130.4,0,209.1-51.7,209.1-136.6v-4.1c0-80.7-49.8-122.1-291.9-184.1c-291.7-74.5-480.1-155.2-480.1-442.8v-4.1
	c0-96.1,28.2-180.3,78.5-248.5c-1.2,41.1,11.6,83.7,38.5,127c22,35.6,52.2,69.7,89.7,101.3c29.5,24.8,63.5,48.3,101.3,69.7
	c51.1,28.9,94.7,46.2,111.4,52.3c47.6,20,115.1,39.5,209.5,63.6c293.8,76.6,459.2,182.1,459.2,434.5V2347.9z"/>
<path display="none" opacity="0.2" fill="#FF0000" d="M5155.5,2155.5c-11.8-27.4-26.9-53.4-44.7-77.2c-17.3-23-37.7-44.8-60.7-64.7
	c-42.6-36.8-95-68.4-160-96.6c-56.4-24.4-123.4-46.6-204.7-67.8l-0.1,0l-0.1,0c-81-20.8-146.8-39.2-192.6-57.3
	c-1.7-1-3.5-1.8-5.4-2.4c-0.1,0-1.6-0.5-4.3-1.5c-12.3-5.2-22.9-10.4-31.7-15.6c-13.4-7.9-22.1-15.4-26.3-23
	c-2.4-4.3-5.7-12.2-5.7-30.5v-4.1c0-15.8,7.2-28.7,21.9-39.3c22.1-16,58.5-24.9,102.5-24.9c42.1,0,84.8,7.3,130.4,22.3
	c44.7,14.7,91.3,36.4,142.3,66.4l0.1,0.1l0.1,0.1c36.5,21.3,72.1,31.2,111.9,31.2c28.4,0,55.9-5.4,81.7-15.9
	c25.3-10.3,47.9-25.2,67.3-44.2c19.5-19.1,34.8-41.6,45.5-66.6c11-25.9,16.6-53.5,16.6-82.1c0-39.9-10.8-78.4-31.3-111.4
	c-17.3-27.9-41-51.3-68.6-67.7c-144-91.2-309.4-137.4-491.8-137.4c-79.6,0-154.8,11.6-223.6,34.4c-11.9,3.9-23.5,8.2-34.8,12.8
	c-5.2,1-10,3.1-14.6,5.3c-3.1,1.5-6.7,3.4-10.8,5.6c-44.6,20.5-85.1,46-120.8,76.4c-52.4,44.5-92.9,98.1-120.9,159.2
	c-28.7,62.6-43,131.5-43,204.9v4.1c0,39.3,3.1,76.3,9.6,110.2c6.5,34.1,16.4,66.2,29.6,95.4c13,28.8,29.5,55.8,49.1,80.2
	c18.7,23.2,40.8,44.9,65.7,64.4c90.7,71,214.4,112.4,372.3,152.7c113.3,29.1,182.5,53.4,217.8,76.7c11.6,7.7,19.4,14.8,23.1,21.9
	c1.9,3.7,4.8,10.4,4.8,25.4v4.1c0,20.9-8.8,35.7-27.9,48.2c-25.9,17-68.5,26.3-119.6,26.3c-61,0-118.5-10.2-175.5-31.1
	c-53.3-19.6-105.1-48.1-158.2-87.2l-0.6-0.4l-0.6-0.4c-17-11.9-34-20.8-52.2-27.4c-23.4-8.5-48.4-12.8-74.4-12.8
	c-28.4,0-55.9,5.4-81.7,15.9c-25.3,10.3-47.9,25.2-67.3,44.2c-19.5,19.1-34.8,41.6-45.5,66.6c-11,25.9-16.6,53.5-16.6,82.1
	c0,67.6,33,132.9,86,170.5c84.6,60.7,178.3,107.4,278.6,139c97.7,30.7,199.1,46.3,301.6,46.3c171.1,0,317.1-45.1,422.1-130.5
	c55.1-44.8,97.8-99.7,126.9-163.2c29.7-64.9,44.8-138,44.8-217.3v-4.1c0-35-3-68.5-8.8-99.4
	C5176.4,2213,5167.4,2183.1,5155.5,2155.5z M5006.9,1435.4c35.2,20.7,70.3,64.1,70.3,126.2c0,82.8-66.2,146.9-149,146.9
	c-31,0-55.9-8.3-80.7-22.8c-105.5-62.1-204.9-97.2-304.2-97.2c-122.1,0-186.3,55.9-186.3,126.2v4.1c0,2.6,0.1,5.1,0.2,7.5
	c-82.6-50.9-125.3-101.8-146.9-136.8c-25.8-41.6-34.5-80.6-26.1-115.9c12.1-50.8,57.1-84.8,82.8-100.6c10.9-6.7,18.8-11.3,24.4-14.4
	c73.6-33.5,160.4-51.6,256.1-51.6C4723.5,1307.1,4876.6,1352.6,5006.9,1435.4z M5129.1,2347.9c0,287.6-219.4,449-531.8,449
	c-190.4,0-382.8-57.9-544.2-173.8c-35.2-24.8-60-70.3-60-120c0-82.8,66.2-146.9,149-146.9c41.4,0,70.3,14.5,91,29
	c109.7,80.7,230,130.4,370.7,130.4c130.4,0,209.3-51.7,209.3-136.6v-4.1c0-80.7-49.8-122.1-291.9-184.1
	c-291.7-74.5-480.1-155.2-480.1-442.8v-4.1c0-96.1,28-180.3,78.3-248.5c-1.2,41.1,11.5,83.7,38.4,127c22,35.6,52.2,69.7,89.7,101.3
	c29.5,24.8,63.5,48.3,101.3,69.7c51.1,28.9,94.7,46.2,111.4,52.3c47.6,20,115.3,39.5,209.7,63.6c293.8,76.6,459.4,182.1,459.4,434.5
	V2347.9z"/>
<path display="none" opacity="0.2" fill="#FF0000" d="M2137.7,2890.8c-27.4,11.8-53.4,26.9-77.2,44.7c-23,17.3-44.8,37.7-64.7,60.7
	c-36.8,42.6-68.4,95-96.6,160c-24.4,56.4-46.6,123.4-67.8,204.7l0,0.1l0,0.1c-20.8,81-39.2,146.8-57.3,192.6c-1,1.7-1.8,3.5-2.4,5.4
	c0,0.1-0.5,1.6-1.5,4.3c-5.2,12.3-10.4,22.9-15.6,31.7c-7.9,13.4-15.4,22.1-23,26.3c-4.3,2.4-12.2,5.7-30.5,5.7h-4.1
	c-15.8,0-28.7-7.2-39.3-21.9c-16-22.1-24.9-58.5-24.9-102.5c0-42.1,7.3-84.8,22.3-130.4c14.7-44.7,36.4-91.3,66.4-142.3l0.1-0.1
	l0.1-0.1c21.3-36.5,31.2-72.1,31.2-111.9c0-28.4-5.4-55.9-15.9-81.7c-10.3-25.3-25.2-47.9-44.2-67.3c-19.1-19.5-41.6-34.8-66.6-45.5
	c-25.9-11-53.5-16.6-82.1-16.6c-39.9,0-78.4,10.8-111.4,31.3c-27.9,17.3-51.3,41-67.7,68.6c-91.2,144-137.4,309.4-137.4,491.8
	c0,79.6,11.6,154.8,34.4,223.6c3.9,11.9,8.2,23.5,12.8,34.8c1,5.2,3.1,10,5.3,14.6c1.5,3.1,3.4,6.7,5.6,10.8
	c20.5,44.6,46,85.1,76.4,120.8c44.5,52.4,98.1,92.9,159.2,120.9c62.6,28.7,131.5,43,204.9,43h4.1c39.3,0,76.3-3.1,110.2-9.6
	c34.1-6.5,66.2-16.4,95.4-29.6c28.8-13,55.8-29.5,80.2-49.1c23.2-18.7,44.9-40.8,64.4-65.7c71-90.7,112.4-214.4,152.7-372.3
	c29.1-113.3,53.4-182.5,76.7-217.8c7.7-11.6,14.8-19.4,21.9-23.1c3.7-1.9,10.4-4.8,25.4-4.8h4.1c20.9,0,35.7,8.8,48.2,27.9
	c17,25.9,26.3,68.5,26.3,119.6c0,61-10.2,118.5-31.1,175.5c-19.6,53.3-48.1,105.1-87.2,158.2l-0.4,0.6l-0.4,0.6
	c-11.9,17-20.8,34-27.4,52.2c-8.5,23.4-12.8,48.4-12.8,74.4c0,28.4,5.4,55.9,15.9,81.7c10.3,25.3,25.2,47.9,44.2,67.3
	c19.1,19.5,41.6,34.8,66.6,45.5c25.9,11,53.5,16.6,82.1,16.6c67.6,0,132.9-33,170.5-86c60.7-84.6,107.4-178.3,139-278.6
	c30.7-97.7,46.3-199.1,46.3-301.6c0-171.1-45.1-317.1-130.5-422.1c-44.8-55.1-99.7-97.8-163.2-126.9c-64.9-29.7-138-44.8-217.3-44.8
	h-4.1c-35,0-68.5,3-99.4,8.8C2195.1,2869.9,2165.3,2878.9,2137.7,2890.8z M1417.6,3039.3c20.7-35.2,64.1-70.3,126.2-70.3
	c82.8,0,146.9,66.2,146.9,149c0,31-8.3,55.9-22.8,80.7c-62.1,105.5-97.2,204.9-97.2,304.2c0,122.1,55.9,186.3,126.2,186.3h4.1
	c2.6,0,5.1-0.1,7.5-0.2c-50.9,82.6-101.8,125.3-136.8,146.9c-41.6,25.8-80.6,34.5-115.9,26.1c-50.8-12.1-84.8-57.1-100.6-82.8
	c-6.7-10.9-11.3-18.8-14.4-24.4c-33.5-73.6-51.6-160.4-51.6-256.1C1289.3,3322.8,1334.8,3169.7,1417.6,3039.3z M2330,2917.2
	c287.6,0,449,219.4,449,531.8c0,190.4-57.9,382.8-173.8,544.2c-24.8,35.2-70.3,60-120,60c-82.8,0-146.9-66.2-146.9-149
	c0-41.4,14.5-70.3,29-91c80.7-109.7,130.4-230,130.4-370.7c0-130.4-51.7-209.3-136.6-209.3h-4.1c-80.7,0-122.1,49.8-184.1,291.9
	c-74.5,291.7-155.2,480.1-442.8,480.1h-4.1c-96.1,0-180.3-28-248.5-78.3c41.1,1.2,83.7-11.5,127-38.4c35.6-22,69.7-52.2,101.3-89.7
	c24.8-29.5,48.3-63.5,69.7-101.3c28.9-51.1,46.2-94.7,52.3-111.4c20-47.6,39.5-115.3,63.6-209.7c76.6-293.8,182.1-459.4,434.5-459.4
	H2330z"/>
<path display="none" opacity="0.2" fill="#FF0000" d="M2137.7,33c-27.4,11.8-53.4,26.9-77.2,44.7c-23,17.3-44.8,37.7-64.7,60.7
	c-36.8,42.6-68.4,95-96.6,160c-24.4,56.4-46.6,123.4-67.8,204.7l0,0.1l0,0.1c-20.8,81-39.2,146.8-57.3,192.6c-1,1.7-1.8,3.5-2.4,5.4
	c0,0.1-0.5,1.6-1.5,4.3c-5.2,12.3-10.4,22.9-15.6,31.7c-7.9,13.4-15.4,22-23,26.2c-4.3,2.4-12.2,5.6-30.5,5.6h-4.1
	c-15.8,0-28.7-7.1-39.3-21.8c-16-22.1-24.9-58.4-24.9-102.4c0-42.1,7.3-84.8,22.3-130.4c14.7-44.7,36.4-91.3,66.4-142.3l0.1-0.1
	l0.1-0.1c21.3-36.5,31.2-72.1,31.2-111.9c0-28.4-5.4-55.9-15.9-81.7c-10.3-25.3-25.2-47.9-44.2-67.3c-19.1-19.5-41.6-34.8-66.6-45.5
	c-25.9-11-53.5-16.6-82.1-16.6c-39.9,0-78.4,10.8-111.4,31.3c-27.9,17.3-51.3,41-67.7,68.6c-91.2,144-137.4,309.4-137.4,491.8
	c0,79.6,11.6,154.8,34.4,223.6c3.9,11.9,8.2,23.5,12.8,34.8c1,5.2,3.1,10,5.3,14.6c1.5,3.1,3.4,6.7,5.6,10.8
	c20.5,44.6,46,85.1,76.4,120.8c44.5,52.4,98.1,92.8,159.2,120.8c62.6,28.7,131.5,42.9,204.9,42.9h4.1c39.3,0,76.3-3,110.2-9.5
	c34.1-6.5,66.2-16.4,95.4-29.6c28.8-13,55.8-29.5,80.2-49.1c23.2-18.7,44.9-40.7,64.4-65.7c71-90.7,112.4-214.4,152.7-372.3
	c29.1-113.3,53.4-182.5,76.7-217.8c7.7-11.6,14.8-19.5,21.9-23.1c3.7-1.9,10.4-4.9,25.4-4.9h4.1c20.9,0,35.7,8.9,48.2,28
	c17,25.9,26.3,68.6,26.3,119.6c0,61-10.2,118.5-31.1,175.6c-19.6,53.3-48.1,105.1-87.2,158.2l-0.4,0.6l-0.4,0.6
	c-11.9,17-20.8,34-27.4,52.2c-8.5,23.4-12.8,48.4-12.8,74.4c0,28.4,5.4,55.9,15.9,81.7c10.3,25.3,25.2,47.9,44.2,67.3
	c19.1,19.5,41.6,34.8,66.6,45.5c25.9,11,53.5,16.6,82.1,16.6c67.6,0,132.9-33,170.5-86c60.7-84.6,107.4-178.3,139-278.6
	c30.7-97.7,46.3-199.1,46.3-301.6c0-171.1-45.1-317.1-130.5-422.1c-44.8-55.1-99.7-97.9-163.2-127c-64.9-29.7-138-44.9-217.3-44.9
	h-4.1c-35,0-68.5,3.1-99.4,8.9C2195.1,11.9,2165.3,21.1,2137.7,33z M1417.6,181.5c20.7-35.2,64.1-70.3,126.2-70.3
	c82.8,0,146.9,66.2,146.9,149c0,31-8.3,55.9-22.8,80.7c-62.1,105.5-97.2,204.8-97.2,304.1c0,122.1,55.9,186.2,126.2,186.2h4.1
	c2.6,0,5.1,0,7.5-0.1c-50.9,82.6-101.8,125.4-136.8,147c-41.6,25.8-80.6,34.5-115.9,26.1c-50.8-12.1-84.8-57.1-100.6-82.8
	c-6.7-10.9-11.3-18.8-14.4-24.4c-33.5-73.6-51.6-160.4-51.6-256.1C1289.3,465,1334.8,311.9,1417.6,181.5z M2330,59.2
	c287.6,0,449,219.5,449,531.9c0,190.4-57.9,382.8-173.8,544.2c-24.8,35.2-70.3,60-120,60c-82.8,0-146.9-66.2-146.9-149
	c0-41.4,14.5-70.3,29-91c80.7-109.7,130.4-230.1,130.4-370.8c0-130.4-51.7-209.4-136.6-209.4h-4.1c-80.7,0-122.1,49.8-184.1,291.9
	c-74.5,291.7-155.2,480.1-442.8,480.1h-4.1c-96.1,0-180.3-27.9-248.5-78.2c41.1,1.2,83.7-11.5,127-38.3
	c35.6-22,69.7-52.1,101.3-89.6c24.8-29.5,48.3-63.5,69.7-101.2c28.9-51.1,46.2-94.7,52.3-111.4c20-47.6,39.5-115.4,63.6-209.7
	c76.6-293.8,182.1-459.5,434.5-459.5H2330z"/>
</svg>
